<svg width="69" height="68" viewBox="0 0 69 68" fill="none" xmlns="http://www.w3.org/2000/svg">
<g clip-path="url(#clip0_15_218)">
<path d="M56.2834 27.1369C54.8526 26.2778 53.1176 26.2278 51.6415 27.0033C48.4666 28.6726 45.0872 29.8607 41.5738 30.5484C41.5298 29.8143 41.4742 29.1091 41.419 28.4179C41.0931 24.3341 40.8572 21.3816 43.4845 17.219C44.8003 15.2847 45.4488 13.0201 45.3595 10.6684C45.1444 4.99028 40.5101 0.373171 34.8088 0.15703C31.7935 0.0420528 28.9339 1.12671 26.7631 3.208C24.5918 5.29022 23.396 8.0898 23.396 11.0912C23.396 13.2865 24.0468 15.4047 25.2783 17.2185C27.906 21.382 27.6708 24.3355 27.3452 28.4204C27.2902 29.111 27.2345 29.8156 27.1908 30.5489C23.6792 29.8626 20.2992 28.674 17.1202 27.0026C16.4381 26.6448 15.6786 26.4558 14.9235 26.4558C12.3121 26.4558 10.1877 28.5738 10.1877 31.1771C10.188 32.7707 10.9836 34.2426 12.3152 35.1142C16.3863 37.7826 20.8409 39.6617 25.5717 40.7131C25.7031 41.6096 25.9706 42.4738 26.3669 43.2841C22.9616 45.7971 20.9013 49.8005 20.9013 54.0779C20.9013 61.4812 26.9488 67.5042 34.3823 67.5042C41.8158 67.5042 47.8634 61.4812 47.8634 54.0779C47.8634 49.8011 45.8028 45.7976 42.3972 43.284C42.7939 42.4731 43.0615 41.6091 43.1931 40.7129C47.9224 39.6616 52.377 37.7823 56.4486 35.1147C57.7802 34.2433 58.5753 32.7712 58.5753 31.1773C58.5754 29.5091 57.7186 27.9987 56.2834 27.1369ZM26.5683 11.0913C26.5683 8.95634 27.4188 6.96502 28.9636 5.48387C30.5073 4.00364 32.5387 3.233 34.6886 3.31404C38.7422 3.46769 42.037 6.75059 42.19 10.7878C42.2538 12.4701 41.7894 14.0874 40.8466 15.465C40.8361 15.4807 40.8255 15.4964 40.8156 15.5123C37.6114 20.5748 37.9251 24.5062 38.2574 28.6685C38.3183 29.4325 38.3785 30.2166 38.4225 31.0272C35.7539 31.3145 33.0131 31.3147 30.3429 31.0272C30.3866 30.2173 30.4467 29.4339 30.5077 28.6705C30.8395 24.5077 31.1529 20.5755 27.9482 15.5121C27.9385 15.4966 27.9284 15.4814 27.9181 15.4662C27.0348 14.1729 26.5683 12.6602 26.5683 11.0913ZM44.6916 54.0775C44.6916 59.7389 40.067 64.3447 34.3826 64.3447C28.6981 64.3447 24.0735 59.7389 24.0735 54.0775C24.0735 50.8129 25.643 47.7567 28.2384 45.8339C29.8821 47.4024 32.0528 48.2805 34.3826 48.2805C36.6734 48.2805 38.8786 47.384 40.5227 45.8314C43.1203 47.7547 44.6916 50.8121 44.6916 54.0775ZM28.9744 41.3176C30.7604 41.5566 32.5712 41.6797 34.3826 41.6797C36.193 41.6797 38.0035 41.5565 39.7902 41.3176C39.5998 41.8527 39.3293 42.36 38.9805 42.8252C37.8847 44.2845 36.2087 45.1217 34.3824 45.1217C32.5562 45.1217 30.8801 44.2846 29.7843 42.825C29.4353 42.3602 29.1645 41.853 28.9744 41.3176ZM54.7065 32.4744C50.6433 35.1367 46.1681 36.9479 41.4048 37.8581C36.8088 38.7369 31.9513 38.7364 27.3607 37.8581C22.5962 36.948 18.1209 35.1367 14.0584 32.474C13.6213 32.188 13.3604 31.703 13.3604 31.1769C13.3601 30.2121 14.1718 29.6149 14.9239 29.6149C15.1692 29.6149 15.411 29.6764 15.6409 29.7969C19.6601 31.9101 23.9767 33.3153 28.4692 33.973C28.4821 33.9748 28.4953 33.9764 28.5084 33.9784C28.5084 33.9784 28.5087 33.9784 28.5089 33.9784C32.3625 34.5425 36.4026 34.5425 40.2565 33.9784C40.2565 33.9784 40.2567 33.9784 40.2571 33.9784C40.2701 33.9765 40.2831 33.9749 40.2961 33.973C44.7923 33.3128 49.1078 31.9078 53.1226 29.7969C53.8198 29.4308 54.42 29.7066 54.6459 29.8421C54.874 29.9789 55.4038 30.3829 55.4038 31.1768C55.4037 31.7037 55.1432 32.1887 54.7065 32.4744Z" fill="black"/>
</g>
<defs>
<clipPath id="clip0_15_218">
<rect width="67.6301" height="67.3553" fill="white" transform="translate(0.566467 0.148743)"/>
</clipPath>
</defs>
</svg>
