<svg width="69" height="68" viewBox="0 0 69 68" fill="none" xmlns="http://www.w3.org/2000/svg">
<g clip-path="url(#clip0_15_207)">
<path d="M39.6322 27.0966C38.4344 27.0966 37.2506 27.2332 36.0905 27.4983C35.8963 26.2313 35.5428 24.5752 34.8994 22.7124L37.434 20.4156C37.8102 20.4414 38.3464 20.4669 39.0013 20.4669C42.0409 20.4669 47.602 19.9165 51.2428 16.289L51.2426 16.2894C56.3599 11.1929 55.3783 2.325 55.3339 1.94994C55.2286 1.05906 54.5234 0.3567 53.6291 0.251852C53.2525 0.20765 44.3483 -0.770186 39.2313 4.32606C35.252 8.2874 34.9471 14.4637 35.0487 17.338L33.2791 18.9415C32.264 16.9883 30.9112 14.9533 29.1073 12.9937C28.381 12.2049 27.1504 12.1516 26.3586 12.8749C25.5666 13.5981 25.5134 14.8239 26.2393 15.6124C30.1297 19.8384 31.5778 24.525 32.1167 27.3822C31.1345 27.1945 30.1367 27.0966 29.1285 27.0966C19.2918 27.0966 11.289 36.1604 11.289 47.3013C11.2891 58.4411 19.2921 67.5041 29.1288 67.5041C30.9211 67.5041 32.6845 67.2053 34.3815 66.6149C36.0783 67.2053 37.8411 67.5041 39.6322 67.5041C49.4701 67.5041 57.4739 58.4412 57.4739 47.3011C57.4739 36.1604 49.4701 27.0966 39.6322 27.0966ZM41.9825 7.06671C44.6356 4.42407 49.053 4.02717 51.4687 4.02717C51.4976 4.02717 51.5264 4.02717 51.555 4.0273C51.5624 6.69744 51.0184 11.0327 48.4913 13.5493C48.4913 13.5493 48.4912 13.5494 48.4912 13.5497C46.7013 15.3331 44.107 16.0931 41.8666 16.399L44.165 14.3164C44.9597 13.5962 45.018 12.3708 44.295 11.5794C43.5721 10.7877 42.3415 10.7296 41.5468 11.4498L39.1193 13.6495C39.4277 11.4239 40.1921 8.84887 41.9825 7.06671ZM39.6322 63.629C38.0846 63.629 36.5628 63.333 35.1094 62.7485C34.876 62.6547 34.6288 62.6076 34.3815 62.6076C34.1342 62.6076 33.8869 62.6545 33.6535 62.7485C32.2002 63.3329 30.6778 63.629 29.1288 63.629C21.4373 63.629 15.18 56.3044 15.18 47.3013C15.18 38.297 21.4375 30.9717 29.1288 30.9717C30.6787 30.9717 32.2004 31.2683 33.6517 31.8532C33.6665 31.8593 33.6818 31.8633 33.6966 31.8689C33.7381 31.8844 33.7793 31.8999 33.8218 31.9124C33.8431 31.9189 33.8646 31.9233 33.886 31.9289C33.925 31.9391 33.9638 31.9496 34.0037 31.9575C34.0354 31.9637 34.0674 31.9674 34.0992 31.972C34.1293 31.9765 34.1592 31.9821 34.1897 31.985C34.3173 31.9977 34.4457 31.9977 34.5733 31.985C34.6034 31.9821 34.6329 31.9765 34.6626 31.9723C34.6949 31.9677 34.7273 31.964 34.7594 31.9575C34.799 31.9498 34.8376 31.9391 34.8766 31.9291C34.8981 31.9235 34.9199 31.919 34.9413 31.9124C34.984 31.8997 35.0252 31.8843 35.0665 31.8689C35.0814 31.8632 35.0966 31.8591 35.1114 31.8532C36.5627 31.2683 38.0837 30.9717 39.6325 30.9717C47.3243 30.9717 53.5826 38.297 53.5826 47.3013C53.583 56.3044 47.3247 63.629 39.6322 63.629Z" fill="black"/>
<path d="M45.4871 48.1436C44.4474 47.871 43.3842 48.4916 43.1118 49.5266C42.4691 51.9687 40.8053 53.4802 39.6322 53.4802C38.5578 53.4802 37.6868 54.3478 37.6868 55.4177C37.6868 56.4877 38.5578 57.3552 39.6322 57.3552C42.8362 57.3552 45.8148 54.54 46.8756 50.5089C47.1481 49.474 46.5265 48.4147 45.4871 48.1436Z" fill="black"/>
<path d="M45.6418 41.2292C44.5674 41.2292 43.6964 42.0968 43.6964 43.1667V44.1645C43.6964 45.2345 44.5674 46.1021 45.6418 46.1021C46.7162 46.1021 47.5872 45.2345 47.5872 44.1645V43.1667C47.5872 42.0968 46.7162 41.2292 45.6418 41.2292Z" fill="black"/>
</g>
<defs>
<clipPath id="clip0_15_207">
<rect width="67.6301" height="67.3553" fill="white" transform="translate(0.566467 0.148743)"/>
</clipPath>
</defs>
</svg>
