<svg width="68" height="69" viewBox="0 0 68 69" fill="none" xmlns="http://www.w3.org/2000/svg">
<g clip-path="url(#clip0_15_184)">
<path d="M59.6652 32.8174H50.0836C51.0124 31.5201 51.5614 29.935 51.5614 28.2236V8.74148C51.5614 4.36747 47.9885 0.809082 43.5966 0.809082C42.671 0.809082 41.9206 1.55644 41.9206 2.47836C41.9206 3.40029 42.671 4.14764 43.5966 4.14764C46.1402 4.14764 48.2092 6.20842 48.2092 8.74148V28.2236C48.2092 30.7567 46.1402 32.8174 43.5966 32.8174H24.0333C21.4909 32.8174 19.4225 30.7567 19.4225 28.2236V8.74148C19.4225 6.20842 21.4909 4.14764 24.0333 4.14764H33.1445C34.0702 4.14764 34.8206 3.40029 34.8206 2.47836C34.8206 1.55644 34.0703 0.809082 33.1445 0.809082H24.0333C19.6426 0.809082 16.0703 4.36747 16.0703 8.74148V28.2236C16.0703 29.935 16.619 31.5201 17.5477 32.8174H7.96475C3.5729 32.8174 0 36.3758 0 40.7498V60.232C0 64.606 3.5729 68.1644 7.96475 68.1644H27.5263C30.0807 68.1644 32.3563 66.9593 33.8149 65.0914C35.273 66.9592 37.5481 68.1644 40.1019 68.1644H59.6652C64.0571 68.1644 67.63 64.606 67.63 60.232V40.7498C67.63 36.3758 64.0571 32.8174 59.6652 32.8174ZM32.1389 60.232C32.1389 62.765 30.0697 64.8258 27.5263 64.8258H7.96475C5.42136 64.8258 3.35218 62.765 3.35218 60.232V40.7498C3.35218 38.2168 5.42136 36.156 7.96475 36.156H24.0333H27.5263C30.0697 36.156 32.1389 38.2168 32.1389 40.7498V60.232ZM64.2778 60.232C64.2778 62.765 62.2086 64.8258 59.6652 64.8258H40.1019C37.5595 64.8258 35.4911 62.765 35.4911 60.232V40.7498C35.4911 38.2168 37.5595 36.156 40.1019 36.156H43.5965H59.6651C62.2086 36.156 64.2777 38.2168 64.2777 40.7498V60.232H64.2778Z" fill="black"/>
<path d="M38.6338 0.809082H37.9633C37.0376 0.809082 36.2872 1.55644 36.2872 2.47836C36.2872 3.40029 37.0376 4.14764 37.9633 4.14764H38.6338C39.5595 4.14764 40.3099 3.40029 40.3099 2.47836C40.3099 1.55644 39.5595 0.809082 38.6338 0.809082Z" fill="black"/>
<path d="M42.0252 26.3759L35.3762 9.37766C35.3719 9.36701 35.3666 9.35727 35.3623 9.34675C35.3509 9.31938 35.3385 9.29228 35.3257 9.26558C35.3143 9.2415 35.3027 9.21782 35.2903 9.19467C35.2776 9.17099 35.2638 9.14797 35.2499 9.12495C35.2354 9.10061 35.2206 9.07614 35.2048 9.05286C35.1907 9.03181 35.1755 9.01168 35.1605 8.99129C35.1432 8.96814 35.126 8.94472 35.1076 8.92249C35.0912 8.90262 35.0738 8.88381 35.0564 8.8646C35.0376 8.84395 35.019 8.82316 34.9992 8.80356C34.9803 8.78422 34.9598 8.76581 34.9393 8.74752C34.9198 8.73003 34.9005 8.71213 34.8802 8.69556C34.8582 8.67754 34.8352 8.6607 34.8123 8.64386C34.7913 8.62847 34.7707 8.61307 34.7491 8.5986C34.726 8.58321 34.702 8.56887 34.6781 8.55453C34.6544 8.54046 34.6308 8.52651 34.6066 8.51349C34.5838 8.50125 34.5604 8.49007 34.5367 8.47889C34.5093 8.46587 34.4818 8.45337 34.4536 8.44166C34.4435 8.43745 34.4338 8.43219 34.4235 8.42811C34.4106 8.42311 34.3975 8.41995 34.3847 8.41522C34.3558 8.40469 34.3266 8.39496 34.297 8.38614C34.2725 8.37878 34.248 8.37194 34.2234 8.36575C34.1954 8.35878 34.1673 8.3526 34.1387 8.34694C34.1126 8.34181 34.0864 8.33708 34.0603 8.33326C34.0328 8.32931 34.0053 8.32602 33.9776 8.32326C33.9506 8.32063 33.9238 8.31839 33.897 8.31708C33.8695 8.31576 33.8421 8.31537 33.8143 8.31537C33.7874 8.31537 33.7606 8.31576 33.7338 8.31708C33.7063 8.31839 33.6788 8.32076 33.6511 8.32339C33.6241 8.32602 33.597 8.32905 33.5702 8.33313C33.5435 8.33708 33.5169 8.34181 33.4903 8.3472C33.4623 8.35273 33.4347 8.35891 33.407 8.36575C33.3821 8.37194 33.3573 8.37878 33.3327 8.38628C33.3033 8.39509 33.2742 8.40483 33.2453 8.41535C33.2323 8.42009 33.2193 8.42324 33.2065 8.42824C33.196 8.43219 33.1865 8.43745 33.1763 8.44179C33.1482 8.45337 33.1205 8.466 33.093 8.47902C33.0695 8.4902 33.0461 8.50139 33.0232 8.51362C32.9989 8.52664 32.9753 8.54046 32.9517 8.55466C32.9277 8.569 32.9037 8.58334 32.8806 8.59873C32.8592 8.61307 32.8383 8.62847 32.8176 8.64399C32.7946 8.66096 32.7716 8.67767 32.7497 8.69569C32.7293 8.71227 32.7099 8.73002 32.6905 8.74765C32.67 8.7662 32.6494 8.78436 32.63 8.80369C32.6105 8.82316 32.5918 8.84395 32.5731 8.8646C32.5556 8.88381 32.5382 8.90262 32.5218 8.92275C32.5033 8.94498 32.4863 8.96827 32.469 8.99155C32.4539 9.01194 32.4386 9.03207 32.4246 9.05312C32.4089 9.07654 32.3942 9.10074 32.3797 9.12508C32.3658 9.14823 32.3518 9.17139 32.3391 9.19507C32.3267 9.21822 32.3152 9.24203 32.3038 9.26584C32.2908 9.29268 32.2787 9.31965 32.267 9.34714C32.2627 9.35767 32.2573 9.3674 32.2532 9.37806L25.6042 26.3763C25.2681 27.2354 25.695 28.2029 26.5576 28.5377C26.7576 28.6154 26.9632 28.6521 27.1655 28.6521C27.8361 28.6521 28.4694 28.2483 28.7275 27.5882L30.3089 23.5452H37.3205L38.9019 27.5882C39.16 28.2482 39.7932 28.6521 40.464 28.6521C40.6664 28.6521 40.8722 28.6154 41.0719 28.5377C41.9343 28.2025 42.3612 27.2348 42.0252 26.3759ZM31.6152 20.2061L33.815 14.5819L36.0148 20.2061H31.6152Z" fill="black"/>
<path d="M22.2039 50.493C22.227 50.4707 22.2508 50.4495 22.2735 50.4269C23.3966 49.3087 24.0149 47.8223 24.0149 46.2418C24.0149 42.9778 21.3488 40.3226 18.0715 40.3226H13.1522C12.2265 40.3226 11.4761 41.0699 11.4761 41.9918V50.4918V58.9901C11.4761 59.912 12.2265 60.6594 13.1522 60.6594H18.0715C19.6584 60.6594 21.1508 60.0436 22.2722 58.9266C23.396 57.8098 24.0149 56.3231 24.0149 54.7402C24.015 53.0749 23.3195 51.5693 22.2039 50.493ZM19.9033 56.5644C19.4135 57.0522 18.7631 57.3207 18.0715 57.3207H14.8283V52.1609H18.0715C19.5002 52.1609 20.6627 53.3179 20.6627 54.7399C20.6628 55.4298 20.3936 56.0773 19.9033 56.5644ZM19.9033 48.0662C19.4135 48.554 18.7631 48.8225 18.0715 48.8225H14.8283V43.6611H18.0715C19.5002 43.6611 20.6627 44.8189 20.6627 46.2418C20.6628 46.9305 20.3931 47.5784 19.9033 48.0662Z" fill="black"/>
<path d="M54.5901 52.6352C53.6644 52.6352 52.914 53.3825 52.914 54.3044C52.914 55.9677 51.5553 57.3208 49.8853 57.3208C48.2144 57.3208 46.8549 55.9677 46.8549 54.3044V46.6775C46.8549 45.0143 48.2144 43.6611 49.8853 43.6611C51.5553 43.6611 52.914 45.0143 52.914 46.6775C52.914 47.5994 53.6644 48.3468 54.5901 48.3468C55.5158 48.3468 56.2662 47.5994 56.2662 46.6775C56.2662 43.1733 53.4038 40.3226 49.8853 40.3226C46.3659 40.3226 43.5027 43.1733 43.5027 46.6775V54.3044C43.5027 57.8086 46.3661 60.6594 49.8853 60.6594C53.4038 60.6594 56.2662 57.8086 56.2662 54.3044C56.2662 53.3824 55.5158 52.6352 54.5901 52.6352Z" fill="black"/>
</g>
<defs>
<clipPath id="clip0_15_184">
<rect width="67.63" height="67.3553" fill="white" transform="translate(0 0.809082)"/>
</clipPath>
</defs>
</svg>
