<svg width="35" height="35" viewBox="0 0 35 35" fill="none" xmlns="http://www.w3.org/2000/svg">
<g clip-path="url(#clip0_195_482)">
<path d="M30.7273 4.18219H4.27995C1.9191 4.18219 0 6.10129 0 8.46214V26.5379C0 28.8987 1.9191 30.8178 4.27995 30.8178H30.7201C33.0809 30.8178 35 28.8987 35 26.5379V8.46938C35.0072 6.10853 33.0881 4.18219 30.7273 4.18219ZM33.0519 26.5379C33.0519 27.8197 32.0091 28.8625 30.7273 28.8625H4.27995C2.99814 28.8625 1.95531 27.8197 1.95531 26.5379V8.46938C1.95531 7.18757 2.99814 6.14474 4.27995 6.14474H30.7201C32.0019 6.14474 33.0447 7.18757 33.0447 8.46938V26.5379H33.0519Z" fill="black"/>
<path d="M22.0733 17.2755L30.6332 9.59913C31.0315 9.23704 31.0677 8.62147 30.7056 8.21593C30.3435 7.81763 29.728 7.78142 29.3224 8.14351L17.5182 18.7384L15.2153 16.6817C15.208 16.6744 15.2008 16.6672 15.2008 16.66C15.1501 16.6093 15.0994 16.5658 15.0415 16.5224L5.67047 8.13627C5.26492 7.77418 4.64936 7.81038 4.28727 8.21593C3.92518 8.62147 3.96139 9.23704 4.36693 9.59913L13.0282 17.3407L4.40314 25.4154C4.01208 25.7847 3.99035 26.4003 4.35969 26.7986C4.55522 27.0014 4.81593 27.11 5.07663 27.11C5.31562 27.11 5.5546 27.0231 5.74289 26.8493L14.4983 18.6587L16.8737 20.7806C17.0619 20.9472 17.2937 21.0268 17.5254 21.0268C17.7572 21.0268 17.9961 20.9399 18.1772 20.7733L20.6177 18.5863L29.3224 26.8565C29.5107 27.0376 29.757 27.1245 29.9959 27.1245C30.2566 27.1245 30.5101 27.0231 30.7056 26.8203C31.075 26.4293 31.0605 25.8065 30.6694 25.4371L22.0733 17.2755Z" fill="black"/>
</g>
<defs>
<clipPath id="clip0_195_482">
<rect width="35" height="35" fill="white"/>
</clipPath>
</defs>
</svg>
