<svg width="1440" height="63" viewBox="0 0 1440 63" fill="none" xmlns="http://www.w3.org/2000/svg">
<g filter="url(#filter0_d_134_102)">
<ellipse cx="36" cy="29.5" rx="36" ry="29.5" fill="white"/>
<ellipse cx="36" cy="29.5" rx="36" ry="29.5" fill="white"/>
<ellipse cx="36" cy="29.5" rx="36" ry="29.5" fill="white"/>
<ellipse cx="396" cy="29.5" rx="36" ry="29.5" fill="white"/>
<ellipse cx="324" cy="29.5" rx="36" ry="29.5" fill="white"/>
<ellipse cx="252" cy="29.5" rx="36" ry="29.5" fill="white"/>
<ellipse cx="180" cy="29.5" rx="36" ry="29.5" fill="white"/>
<ellipse cx="108" cy="29.5" rx="36" ry="29.5" fill="white"/>
<ellipse cx="468" cy="29.5" rx="36" ry="29.5" fill="white"/>
<ellipse cx="468" cy="29.5" rx="36" ry="29.5" fill="white"/>
<ellipse cx="468" cy="29.5" rx="36" ry="29.5" fill="white"/>
<ellipse cx="828" cy="29.5" rx="36" ry="29.5" fill="white"/>
<ellipse cx="756" cy="29.5" rx="36" ry="29.5" fill="white"/>
<ellipse cx="684" cy="29.5" rx="36" ry="29.5" fill="white"/>
<ellipse cx="612" cy="29.5" rx="36" ry="29.5" fill="white"/>
<ellipse cx="540" cy="29.5" rx="36" ry="29.5" fill="white"/>
<ellipse cx="900" cy="29.5" rx="36" ry="29.5" fill="white"/>
<ellipse cx="900" cy="29.5" rx="36" ry="29.5" fill="white"/>
<ellipse cx="900" cy="29.5" rx="36" ry="29.5" fill="white"/>
<ellipse cx="1260" cy="29.5" rx="36" ry="29.5" fill="white"/>
<ellipse cx="1332" cy="29.5" rx="36" ry="29.5" fill="white"/>
<ellipse cx="1404" cy="29.5" rx="36" ry="29.5" fill="white"/>
<ellipse cx="1188" cy="29.5" rx="36" ry="29.5" fill="white"/>
<ellipse cx="1116" cy="29.5" rx="36" ry="29.5" fill="white"/>
<ellipse cx="1044" cy="29.5" rx="36" ry="29.5" fill="white"/>
<ellipse cx="972" cy="29.5" rx="36" ry="29.5" fill="white"/>
</g>
<defs>
<filter id="filter0_d_134_102" x="0" y="0" width="1440" height="63" filterUnits="userSpaceOnUse" color-interpolation-filters="sRGB">
<feFlood flood-opacity="0" result="BackgroundImageFix"/>
<feColorMatrix in="SourceAlpha" type="matrix" values="0 0 0 0 0 0 0 0 0 0 0 0 0 0 0 0 0 0 127 0" result="hardAlpha"/>
<feOffset dy="4"/>
<feComposite in2="hardAlpha" operator="out"/>
<feColorMatrix type="matrix" values="0 0 0 0 0 0 0 0 0 0 0 0 0 0 0 0 0 0 0.25 0"/>
<feBlend mode="normal" in2="BackgroundImageFix" result="effect1_dropShadow_134_102"/>
<feBlend mode="normal" in="SourceGraphic" in2="effect1_dropShadow_134_102" result="shape"/>
</filter>
</defs>
</svg>
