<svg width="35" height="35" viewBox="0 0 35 35" fill="none" xmlns="http://www.w3.org/2000/svg">
<g clip-path="url(#clip0_195_455)">
<path d="M17.4927 0C9.75898 0 3.46338 6.2956 3.46338 14.0294C3.46338 14.9099 3.54409 15.7977 3.71285 16.6635C3.72019 16.7149 3.74954 16.869 3.80824 17.1331C4.02103 18.0797 4.33654 19.0115 4.74745 19.8994C6.25898 23.4581 9.58288 28.9245 16.8764 34.7799C17.0598 34.9266 17.2799 35 17.5001 35C17.7202 35 17.9403 34.9266 18.1238 34.7799C25.4099 28.9245 28.7412 23.4581 30.2527 19.8994C30.6636 19.0115 30.9791 18.087 31.1919 17.1331C31.2506 16.869 31.2799 16.7149 31.2873 16.6635C31.4487 15.7977 31.5367 14.9099 31.5367 14.0294C31.5221 6.2956 25.2265 0 17.4927 0ZM29.3208 16.3187C29.3208 16.3333 29.3135 16.348 29.3135 16.3627C29.3061 16.3994 29.2841 16.5094 29.2474 16.6782C29.2474 16.6855 29.2474 16.6855 29.2474 16.6929C29.064 17.5147 28.7925 18.3145 28.433 19.0849C28.4256 19.0922 28.4256 19.1069 28.4183 19.1143C27.0462 22.3648 24.0378 27.3249 17.4927 32.7327C10.9477 27.3249 7.93927 22.3648 6.56715 19.1143C6.55981 19.1069 6.55981 19.0922 6.55248 19.0849C6.20028 18.3218 5.92879 17.5147 5.73801 16.6929C5.73801 16.6855 5.73801 16.6855 5.73801 16.6782C5.69399 16.5094 5.67931 16.3994 5.67197 16.3627C5.67197 16.348 5.66464 16.3333 5.66464 16.3113C5.51789 15.5556 5.44451 14.7925 5.44451 14.022C5.44451 7.38155 10.8523 1.97379 17.4927 1.97379C24.1332 1.97379 29.5409 7.38155 29.5409 14.022C29.5409 14.7998 29.4676 15.5702 29.3208 16.3187Z" fill="black"/>
<path d="M17.4927 5.2757C12.5839 5.2757 8.58496 9.27465 8.58496 14.1835C8.58496 19.0923 12.5839 23.0912 17.4927 23.0912C22.4015 23.0912 26.4005 19.0923 26.4005 14.1835C26.4005 9.27465 22.4015 5.2757 17.4927 5.2757ZM17.4927 21.1101C13.6699 21.1101 10.5661 17.999 10.5661 14.1835C10.5661 10.3679 13.6772 7.25683 17.4927 7.25683C21.3082 7.25683 24.4193 10.3679 24.4193 14.1835C24.4193 17.999 21.3156 21.1101 17.4927 21.1101Z" fill="black"/>
</g>
<defs>
<clipPath id="clip0_195_455">
<rect width="35" height="35" fill="white"/>
</clipPath>
</defs>
</svg>
