<svg width="1440" height="58" viewBox="0 0 1440 58" fill="none" xmlns="http://www.w3.org/2000/svg">
<g filter="url(#filter0_d_5_110)">
<ellipse cx="36" cy="30.8644" rx="36" ry="26.8644" fill="#185A18"/>
<ellipse cx="36" cy="30.8644" rx="36" ry="26.8644" fill="#185A18"/>
<ellipse cx="36" cy="30.8644" rx="36" ry="26.8644" fill="#185A18"/>
<ellipse cx="396" cy="30.8644" rx="36" ry="26.8644" fill="#185A18"/>
<ellipse cx="324" cy="30.8644" rx="36" ry="26.8644" fill="#185A18"/>
<ellipse cx="252" cy="30.8644" rx="36" ry="26.8644" fill="#185A18"/>
<ellipse cx="180" cy="30.8644" rx="36" ry="26.8644" fill="#185A18"/>
<ellipse cx="108" cy="30.8644" rx="36" ry="26.8644" fill="#185A18"/>
<ellipse cx="468" cy="30.8644" rx="36" ry="26.8644" fill="#185A18"/>
<ellipse cx="468" cy="30.8644" rx="36" ry="26.8644" fill="#185A18"/>
<ellipse cx="468" cy="30.8644" rx="36" ry="26.8644" fill="#185A18"/>
<ellipse cx="828" cy="30.8644" rx="36" ry="26.8644" fill="#185A18"/>
<ellipse cx="756" cy="30.8644" rx="36" ry="26.8644" fill="#185A18"/>
<ellipse cx="684" cy="30.8644" rx="36" ry="26.8644" fill="#185A18"/>
<ellipse cx="612" cy="30.8644" rx="36" ry="26.8644" fill="#185A18"/>
<ellipse cx="540" cy="30.8644" rx="36" ry="26.8644" fill="#185A18"/>
<ellipse cx="900" cy="30.8644" rx="36" ry="26.8644" fill="#185A18"/>
<ellipse cx="900" cy="30.8644" rx="36" ry="26.8644" fill="#185A18"/>
<ellipse cx="900" cy="30.8644" rx="36" ry="26.8644" fill="#185A18"/>
<ellipse cx="1260" cy="30.8644" rx="36" ry="26.8644" fill="#185A18"/>
<ellipse cx="1332" cy="30.8644" rx="36" ry="26.8644" fill="#185A18"/>
<ellipse cx="1404" cy="30.8644" rx="36" ry="26.8644" fill="#185A18"/>
<ellipse cx="1188" cy="30.8644" rx="36" ry="26.8644" fill="#185A18"/>
<ellipse cx="1116" cy="30.8644" rx="36" ry="26.8644" fill="#185A18"/>
<ellipse cx="1044" cy="30.8644" rx="36" ry="26.8644" fill="#185A18"/>
<ellipse cx="972" cy="30.8644" rx="36" ry="26.8644" fill="#185A18"/>
</g>
<defs>
<filter id="filter0_d_5_110" x="0" y="0" width="1440" height="57.7285" filterUnits="userSpaceOnUse" color-interpolation-filters="sRGB">
<feFlood flood-opacity="0" result="BackgroundImageFix"/>
<feColorMatrix in="SourceAlpha" type="matrix" values="0 0 0 0 0 0 0 0 0 0 0 0 0 0 0 0 0 0 127 0" result="hardAlpha"/>
<feOffset dy="-4"/>
<feComposite in2="hardAlpha" operator="out"/>
<feColorMatrix type="matrix" values="0 0 0 0 0.0941176 0 0 0 0 0.352941 0 0 0 0 0.0941176 0 0 0 0.25 0"/>
<feBlend mode="normal" in2="BackgroundImageFix" result="effect1_dropShadow_5_110"/>
<feBlend mode="normal" in="SourceGraphic" in2="effect1_dropShadow_5_110" result="shape"/>
</filter>
</defs>
</svg>
