<svg width="69" height="68" viewBox="0 0 69 68" fill="none" xmlns="http://www.w3.org/2000/svg">
<g clip-path="url(#clip0_15_42)">
<path d="M27.2809 22.587C28.9575 21.0423 30.0097 18.8345 30.0097 16.3858C30.0097 14.6274 28.9485 11.773 26.7654 7.65929L26.7653 7.65902C24.8817 4.11221 22.8708 0.968612 22.7861 0.836664C22.5111 0.4078 22.0356 0.148376 21.5248 0.148376C21.014 0.148376 20.5385 0.4078 20.2635 0.836664C20.1789 0.968744 18.1678 4.11234 16.2841 7.65942C14.1012 11.7732 13.04 14.6275 13.04 16.3859C13.04 18.834 14.0917 21.0412 15.7675 22.586C14.861 22.7586 14.027 23.1957 13.36 23.8601C12.481 24.7357 11.9971 25.8996 11.9971 27.1375C11.9971 29.5516 13.86 31.5394 16.229 31.7525V62.2294C16.229 65.1376 18.6048 67.5037 21.5248 67.5037C24.4449 67.5037 26.8207 65.1376 26.8207 62.2294V31.7528C27.9047 31.6562 28.9108 31.1902 29.6883 30.4161C30.568 29.542 31.0527 28.3775 31.0527 27.1372C31.0527 24.8824 29.4267 22.9995 27.2809 22.587ZM21.5248 4.48648C22.1218 5.47958 22.8665 6.75183 23.6134 8.11459L21.5248 10.3194L19.4362 8.11459C20.1831 6.75183 20.9277 5.47958 21.5248 4.48648ZM17.9772 10.9183L20.4364 13.5143C20.4463 13.5247 20.4571 13.5337 20.4674 13.5438C20.4778 13.5542 20.4872 13.5655 20.498 13.5756C20.507 13.5839 20.5165 13.5912 20.5258 13.5992C20.5441 13.6156 20.5629 13.6315 20.5818 13.6468C20.602 13.6633 20.6223 13.6789 20.6431 13.694C20.6626 13.7084 20.6824 13.7222 20.7025 13.7355C20.7243 13.7499 20.7466 13.7634 20.7691 13.7765C20.789 13.7881 20.8087 13.7997 20.8289 13.8102C20.8532 13.8228 20.8777 13.8344 20.9024 13.8457C20.9218 13.8545 20.9409 13.8636 20.9608 13.8715C20.9876 13.8824 21.0148 13.8918 21.0421 13.901C21.0605 13.9073 21.0788 13.914 21.0973 13.9195C21.1271 13.9283 21.1573 13.9353 21.1876 13.9423C21.2043 13.9461 21.2208 13.9508 21.2377 13.954C21.272 13.9606 21.3064 13.9652 21.341 13.9694C21.3544 13.971 21.3673 13.9736 21.3807 13.9749C21.4285 13.9795 21.4766 13.982 21.5246 13.982H21.5249H21.5252C21.5733 13.982 21.6212 13.9795 21.6692 13.9749C21.6824 13.9737 21.6953 13.9711 21.7085 13.9695C21.7433 13.9653 21.7777 13.9607 21.8122 13.954C21.8287 13.9508 21.8448 13.9462 21.8613 13.9425C21.892 13.9356 21.9225 13.9283 21.9527 13.9194C21.9707 13.914 21.9885 13.9074 22.0064 13.9015C22.0344 13.8922 22.0622 13.8824 22.0897 13.8714C22.1087 13.8636 22.1272 13.8549 22.146 13.8465C22.1715 13.8349 22.1967 13.8231 22.2217 13.8099C22.2412 13.7997 22.2604 13.7885 22.2795 13.7773C22.3028 13.7639 22.3255 13.7501 22.3481 13.7351C22.3676 13.7221 22.3871 13.7085 22.4059 13.6947C22.4272 13.6792 22.448 13.6633 22.4686 13.6465C22.4873 13.6313 22.5057 13.6156 22.5239 13.5995C22.533 13.5913 22.5428 13.5841 22.5518 13.5758C22.5627 13.5655 22.572 13.5543 22.5826 13.5439C22.5927 13.5338 22.6036 13.525 22.6135 13.5146L25.0726 10.9185C26.8056 14.4623 27.0169 15.9005 27.0169 16.3861C27.0169 19.402 24.5532 21.8557 21.525 21.8557C18.4969 21.8557 16.0331 19.402 16.0331 16.3861C16.0329 15.9002 16.2442 14.4619 17.9772 10.9183ZM23.8276 62.2294C23.8278 63.4942 22.7948 64.523 21.5248 64.523C20.2549 64.523 19.2218 63.4941 19.2218 62.2294V31.7724H23.8276V62.2294ZM27.5734 28.307C27.2595 28.6196 26.8418 28.7916 26.3972 28.7916H16.6509C15.7351 28.7916 14.9899 28.0495 14.9899 27.1373C14.9899 26.6955 15.1625 26.2801 15.4764 25.9676C15.7902 25.655 16.2072 25.4831 16.6509 25.4831H26.3972C27.3139 25.4831 28.0597 26.2252 28.0597 27.1373C28.0598 27.5799 27.8875 27.9948 27.5734 28.307Z" fill="black"/>
<path d="M56.7652 15.0592C56.7649 15.0268 56.7628 14.9943 56.7603 14.9618C56.759 14.9439 56.7581 14.9259 56.7559 14.9081C56.7528 14.8801 56.7479 14.8522 56.7431 14.8242C56.7394 14.802 56.7359 14.7796 56.731 14.7576C56.7262 14.7361 56.72 14.7146 56.7142 14.6929C56.7067 14.6652 56.6994 14.6375 56.6904 14.6103C56.6849 14.5937 56.6784 14.5774 56.6723 14.561C56.6608 14.5299 56.649 14.4991 56.6355 14.4692C56.6332 14.464 56.6318 14.459 56.6294 14.4539L50.4356 1.01702C50.4325 1.01058 50.4286 1.00492 50.4254 0.998738C50.4002 0.945985 50.3722 0.894942 50.3411 0.846004C50.3358 0.837716 50.3311 0.828902 50.3257 0.820615C50.2911 0.768256 50.2532 0.718529 50.2122 0.671038C50.2023 0.659593 50.192 0.648806 50.1817 0.637624C50.147 0.599605 50.1105 0.563428 50.0721 0.529092C50.062 0.520146 50.0525 0.510806 50.0421 0.502124C49.9948 0.462131 49.945 0.425165 49.8927 0.391224C49.8826 0.384646 49.8723 0.37899 49.8622 0.372675C49.8159 0.34426 49.7683 0.318212 49.7189 0.294795C49.7079 0.289533 49.6972 0.284008 49.6861 0.279009C49.6276 0.252961 49.5676 0.230071 49.5053 0.211522C49.4984 0.209417 49.4914 0.208102 49.4844 0.206128C49.43 0.190737 49.3741 0.178765 49.3173 0.169425C49.3016 0.166925 49.286 0.164294 49.2701 0.162321C49.2069 0.154165 49.142 0.148376 49.0758 0.148376C49.0097 0.148376 48.9449 0.154165 48.881 0.162453C48.8653 0.164558 48.8497 0.167057 48.834 0.169557C48.7769 0.178765 48.721 0.190737 48.6662 0.20626C48.6595 0.208233 48.6526 0.209417 48.646 0.211522C48.5838 0.230203 48.5234 0.252961 48.4648 0.279141C48.4538 0.283876 48.4435 0.289402 48.4328 0.294532C48.3832 0.31808 48.3351 0.344128 48.2887 0.372938C48.2788 0.37899 48.2686 0.384646 48.2587 0.390961C48.2066 0.424902 48.1565 0.462 48.1091 0.501992C48.0989 0.510543 48.0895 0.519883 48.0796 0.528697C48.041 0.563164 48.0043 0.599342 47.9695 0.637492C47.9593 0.648674 47.9488 0.659461 47.9391 0.670907C47.8984 0.718266 47.8603 0.767862 47.8257 0.82022C47.8202 0.828771 47.8153 0.837716 47.8099 0.846267C47.7791 0.894942 47.7512 0.945722 47.7263 0.997817C47.7231 1.00439 47.719 1.01005 47.7158 1.01676L41.5219 14.4539C41.5195 14.459 41.518 14.4643 41.5155 14.4694C41.5022 14.499 41.4906 14.5295 41.4792 14.5601C41.4729 14.5769 41.4664 14.5935 41.4607 14.6104C41.4517 14.6374 41.4443 14.665 41.4371 14.6925C41.4313 14.7141 41.4251 14.7358 41.4203 14.7575C41.4155 14.7795 41.4121 14.8016 41.4081 14.8238C41.4034 14.8518 41.3984 14.8799 41.3953 14.9079C41.3934 14.9256 41.3923 14.9435 41.391 14.9614C41.3885 14.9939 41.3864 15.0264 41.3861 15.0589C41.3861 15.0646 41.3852 15.07 41.3852 15.0756V58.2846H41.3854V59.8167C41.3854 64.0398 44.8354 67.4756 49.0758 67.4756C53.3162 67.4756 56.766 64.0398 56.766 59.8167V58.2846V15.0759C56.7661 15.0702 56.7653 15.0648 56.7652 15.0592ZM47.5794 8.45729V9.21122C47.5794 10.0344 48.2494 10.7016 49.0758 10.7016C49.9022 10.7016 50.5723 10.0344 50.5723 9.21122V8.45742L52.936 13.5855H45.2156L47.5794 8.45729ZM49.0757 64.4947C46.4856 64.4947 44.3782 62.396 44.3782 59.8164V59.7747H53.7728V59.8164C53.773 62.3959 51.666 64.4947 49.0757 64.4947ZM53.7731 56.794H44.3785V54.3348H53.7731V56.794ZM53.7732 51.3542H44.3786V16.5662H47.5795V36.8023C47.5795 37.6254 48.2496 38.2927 49.076 38.2927C49.9023 38.2927 50.5724 37.6254 50.5724 36.8023V16.5662H53.7734V51.3542H53.7732Z" fill="black"/>
<path d="M49.0758 41.1989C48.2495 41.1989 47.5794 41.8661 47.5794 42.6892V44.4777C47.5794 45.3008 48.2495 45.9681 49.0758 45.9681C49.9022 45.9681 50.5723 45.3008 50.5723 44.4777V42.6892C50.5723 41.8661 49.9022 41.1989 49.0758 41.1989Z" fill="black"/>
</g>
<defs>
<clipPath id="clip0_15_42">
<rect width="67.6301" height="67.3553" fill="white" transform="translate(0.566589 0.148376)"/>
</clipPath>
</defs>
</svg>
